PathFileType	4	(X/Y/Z)	C:\Users\T490\OneDrive\Desktop\110_Internship_Tasks\Sprint GSG Position Analysis\results\sports2d_output\sprint_video_Sports2D\sprint_video_Sports2D_px_person00.trc
DataRate	CameraRate	NumFrames	NumMarkers	Units	OrigDataRate	OrigDataStartFrame	OrigNumFrames
25.0	25.0	13	22	m	25.0	139	559
Frame#	Time	Hip			RHip			RKnee			RAnkle			RBigToe			RSmallToe			RHeel			LHip			LKnee			LAnkle			LBigToe			LSmallToe			LHeel			Neck			Head			Nose			RShoulder			RElbow			RWrist			LShoulder			LElbow			LWrist			
		X1	Y1	Z1	X2	Y2	Z2	X3	Y3	Z3	X4	Y4	Z4	X5	Y5	Z5	X6	Y6	Z6	X7	Y7	Z7	X8	Y8	Z8	X9	Y9	Z9	X10	Y10	Z10	X11	Y11	Z11	X12	Y12	Z12	X13	Y13	Z13	X14	Y14	Z14	X15	Y15	Z15	X16	Y16	Z16	X17	Y17	Z17	X18	Y18	Z18	X19	Y19	Z19	X20	Y20	Z20	X21	Y21	Z21	X22	Y22	Z22
139	5.569964157706093	955.8435233670073	501.5395991405315	0.0	942.2337650089896	512.2446430922234	0.0	908.7567416448537	588.4339494100496	0.0	987.0203554232733	651.3699908441451	0.0	966.2554731449904	686.4595549039731	0.0	968.4289139574512	679.7717868389844	0.0	1004.0691298557533	657.9535838375559	0.0	965.6927229053662	499.9770752899151	0.0	997.6964204774954	613.5839106190376	0.0	1111.3182483965838	620.7106802970238	0.0	1118.7677351731443	670.5403543189066	0.0	1124.1771643696743	667.3674891138968	0.0	1127.5573034337722	614.7327287180799	0.0	835.59364971231	541.0147056448897	0.0	781.9203759014889	593.0829653715348	0.0	823.5417638140907	586.7395248272268	0.0	849.5028885455018	532.4254597470998	0.0	834.7240318705537	605.4764803657849	0.0	812.0589070724639	667.2161268553679	0.0	831.4076643864685	535.7267632954552	0.0	815.5585691608728	605.927930836316	0.0	794.7988834282135	668.8957996527619	0.0
140	5.6100358422939065	955.7944373316645	504.7856692608833	0.0	943.2209395405366	515.765730139636	0.0	907.9579543074193	588.5142897843775	0.0	987.713414028766	651.7786602644275	0.0	967.2320987102305	685.6630635024546	0.0	968.1239043643725	680.1018564339001	0.0	1004.7180353206173	658.0933302255976	0.0	966.2378164431084	502.21254745054654	0.0	1018.870279194528	608.9814951194353	0.0	1133.1931741679405	623.3251148830834	0.0	1135.7554879094994	674.9575119349366	0.0	1142.4412794385073	671.236778116783	0.0	1151.1855260927337	619.1602394802003	0.0	836.1461574426219	541.1858956245055	0.0	784.3051172259094	594.6464244310113	0.0	826.5100891892721	586.446786311708	0.0	849.5889707517672	532.3059297635241	0.0	835.5820588761594	607.0603670540742	0.0	810.0146831700463	666.7389229121255	0.0	833.4226240467801	535.4775372213314	0.0	817.635604953838	607.472817708928	0.0	795.6273505120466	669.3270411247561	0.0
141	5.650107526881721	957.8763776333303	507.7420126256023	0.0	946.4335925504834	518.5895397395104	0.0	908.7158876843523	588.0293382406558	0.0	989.0479539981106	652.6205265102151	0.0	966.6886172373222	685.2587420056011	0.0	967.6007962668941	680.6843839401813	0.0	1006.7697731001736	659.6149904718933	0.0	968.2044153525715	504.7251191219782	0.0	1037.3074192994268	601.0695487307522	0.0	1151.3965656130747	627.3045836084178	0.0	1151.6191880532936	680.011801230706	0.0	1159.4787567278468	675.0667847369357	0.0	1169.9230811765105	624.4617190614111	0.0	837.6767888153697	542.1610482529093	0.0	787.0316248169785	596.3056619126467	0.0	828.3380037836581	587.2985065011758	0.0	847.8861126048919	532.4628903835461	0.0	836.6522298843947	608.0287542917285	0.0	808.181897340221	665.9639200433492	0.0	835.8325187772089	537.3239354735815	0.0	820.0959514159468	609.2581566598631	0.0	795.7074380419593	671.3044243023951	0.0
142	5.690179211469534	962.0290895592732	510.7455391335241	0.0	951.7556918696152	521.7223311499451	0.0	909.1129185948427	587.2960586306519	0.0	989.132193370288	653.1196759787786	0.0	966.3032885887153	685.2445171375476	0.0	968.4015833978144	680.8812527847948	0.0	1008.175143979469	660.7409733032307	0.0	971.5242323146147	507.9563479157782	0.0	1053.1321249841608	593.5399903035641	0.0	1164.400740828464	631.5064593661324	0.0	1164.1176836825016	684.9929018725616	0.0	1172.8988434568835	679.2479773208871	0.0	1182.4811174335748	630.0771059362353	0.0	840.2852056974185	543.6460212967403	0.0	790.1813445876949	597.4168174174016	0.0	829.6785555052584	588.0389752360527	0.0	847.5747853179082	532.6355476733311	0.0	839.974279883625	607.7793921129635	0.0	808.3798363974907	665.1263813167117	0.0	838.3719913686604	540.036822291347	0.0	822.7364800559737	610.3158185789825	0.0	795.8565432903616	672.92908830967	0.0
143	5.730250896057348	967.4173334625282	514.7539647261488	0.0	958.3834717338009	525.5616945108069	0.0	909.7076795516646	586.891086305581	0.0	989.3480957422912	653.1950768641826	0.0	966.9807816732236	685.0487706720829	0.0	971.3165482601057	680.1994820572836	0.0	1009.717627495033	661.0200320696788	0.0	976.473454412346	512.2762936052953	0.0	1065.7554241704213	590.554233794055	0.0	1172.5664991759738	634.1227195921621	0.0	1172.563406580087	686.9485683809396	0.0	1181.1449241374173	681.7932086943999	0.0	1190.5690266144059	634.1449496073025	0.0	843.5706942165792	545.1915694602186	0.0	793.5927853525661	597.5909778332932	0.0	831.5698848789754	587.5478883025405	0.0	850.7219862104071	531.9340604184717	0.0	846.2408979557612	606.9904602733494	0.0	810.4409694285227	664.5609319081386	0.0	841.8265264104655	542.2774092677835	0.0	825.1621256888071	611.1568285560779	0.0	796.2842689473872	673.1508621702553	0.0
144	5.7703225806451615	972.9936449588079	518.5403985606438	0.0	964.6335042872431	528.4948782474208	0.0	911.3080877090443	587.2973574213459	0.0	990.9389357180794	653.3848714432597	0.0	968.4656602784398	684.8804155097173	0.0	974.2940851333002	680.5579796540951	0.0	1011.9980656438668	662.1901132569819	0.0	981.5465523088865	516.3652696992253	0.0	1073.87310732984	591.5329744460246	0.0	1177.9505880552406	635.0839207920346	0.0	1176.258538784633	687.1041530855199	0.0	1184.5340832960678	683.8446595804011	0.0	1195.8916563442947	635.9140629189724	0.0	847.5468383758188	546.760585689884	0.0	796.295007422283	598.9312369203454	0.0	833.9591023636547	587.9826134493305	0.0	855.5420762312033	531.4359777663174	0.0	852.0899890955019	606.3907386454612	0.0	812.2177623850976	664.0849828659314	0.0	846.4341922110359	544.2782158491623	0.0	827.0159530658614	613.4696816966836	0.0	796.4923858293527	673.2150953948588	0.0
145	5.810394265232975	977.2442407544349	519.1512449429725	0.0	969.0978272129736	528.7275214699569	0.0	913.0140865707563	587.3967135242731	0.0	992.5398023479072	653.7269779820948	0.0	969.6290164018133	685.5059152300734	0.0	974.9658879347127	683.539323291594	0.0	1013.4348581333782	664.7671467401426	0.0	984.5756348284078	517.6765012793434	0.0	1077.0343899046482	592.8216074119852	0.0	1181.0543270562976	635.2004496828479	0.0	1175.8890521534631	688.983816699604	0.0	1185.053826281136	687.0347847787483	0.0	1198.1008958847037	636.1687551860938	0.0	852.257051173522	548.5398687488749	0.0	798.2766259395642	603.0850855444577	0.0	836.9938434997084	590.9374302659711	0.0	860.0909082975909	532.8035183349054	0.0	854.3107435016359	606.011001733805	0.0	811.9627097436407	663.3405167338763	0.0	850.5694422848148	546.0976389461092	0.0	828.5646565827011	617.3037347354443	0.0	796.4612268627286	674.3449021104087	0.0
146	5.850465949820789	978.9570556029353	515.5682233508272	0.0	970.8225146455877	525.9487335910478	0.0	913.6458773802343	586.0815123439181	0.0	993.5161523242064	653.9471975216491	0.0	969.3153882286271	686.2280224571988	0.0	973.859587721317	686.3554017244802	0.0	1013.4988245098481	666.8309631042898	0.0	985.96106805815	514.6229441086942	0.0	1076.4573617748085	592.166422837359	0.0	1180.9204642146756	634.8654898273177	0.0	1174.1395184471373	692.3569701420759	0.0	1184.2286673907734	689.6384613621505	0.0	1197.3140892618053	635.735816448207	0.0	855.9396666419269	550.014210337027	0.0	800.3719782191656	607.3522871306599	0.0	840.4459168544547	593.5944389595211	0.0	864.3457076766334	535.2918028645585	0.0	854.017580433189	605.8856983706627	0.0	810.8861882955396	662.5705040320391	0.0	852.257819553622	546.8076446270701	0.0	829.678469742577	618.5557676640766	0.0	796.5788892431485	675.143301820576	0.0
147	5.890537634408602	978.3905334423748	510.3206920957124	0.0	969.715518666615	521.7008455933028	0.0	913.923026615944	584.0700927856581	0.0	994.4599241104464	654.0510714072755	0.0	968.2592117116922	685.3515273874332	0.0	972.8645165318062	685.7575370444765	0.0	1013.1695566193828	666.7410010038743	0.0	986.9248809166029	509.1971284498849	0.0	1074.440108583538	590.034711913649	0.0	1178.265904054286	634.3855166764695	0.0	1172.4149460496387	694.2065745724888	0.0	1182.336687497319	689.973290230773	0.0	1195.1277128810445	634.8580077796996	0.0	856.5715230452607	550.5286739480271	0.0	801.9685508371666	608.2487586768984	0.0	842.1482844133352	593.8847239536867	0.0	867.2910079736605	536.6809644901011	0.0	853.4741657325402	605.9609955455168	0.0	811.0230500084292	662.1743099778491	0.0	851.6698125619887	546.5205647845411	0.0	829.5158339319873	615.6722157960332	0.0	796.9702562760897	674.1265949789132	0.0
148	5.9306093189964155	977.2167112153263	506.6728597657419	0.0	967.7089393195232	518.7412875794271	0.0	915.0825765051387	582.2590538613063	0.0	994.7795283582593	654.1913291872472	0.0	967.7349886019671	683.6235797218276	0.0	972.6131873014945	683.2142040467561	0.0	1012.948588726932	665.2092983915766	0.0	986.9731658309413	505.58301580472727	0.0	1072.961260614181	588.1716691638367	0.0	1175.766104057929	634.0709062975045	0.0	1170.743226499961	693.8559925971274	0.0	1180.6979063660751	689.106358227501	0.0	1192.970603276262	633.6735741326221	0.0	855.6774905981399	550.057142652066	0.0	802.2245390762813	606.294447186515	0.0	841.6734380645322	593.2228923684335	0.0	867.3182389999879	536.002886052421	0.0	853.2579868936937	605.4354881005659	0.0	812.1963682941812	661.6421750524066	0.0	850.9811643739142	545.8062902674201	0.0	828.7275949684002	612.9313128502054	0.0	797.7031633904255	672.68376824436	0.0
149	5.97068100358423	976.5266060727947	505.69310730903055	0.0	966.8700266111088	518.2942214657253	0.0	916.1570425398282	581.2865606660532	0.0	993.6706156829841	654.2614227241141	0.0	967.647738404142	683.3400778660493	0.0	972.7048371176033	682.0248458736867	0.0	1012.8049358420744	664.0562804552925	0.0	985.6273546932824	505.38807517634274	0.0	1072.400771332928	587.8230131275117	0.0	1174.727793048768	634.5344951766514	0.0	1169.8387376051605	693.4096194738538	0.0	1180.7531141990762	688.6668782452599	0.0	1191.4625685951155	633.1195854252248	0.0	855.6246049417929	548.8749912816388	0.0	801.7393916915673	604.5299417604008	0.0	841.3110843054476	592.7138731249155	0.0	864.9030053895393	534.0142669128131	0.0	853.1677326027125	603.7887978615213	0.0	813.007016436811	660.4070573876619	0.0	851.093659022372	544.4424257186846	0.0	828.7229780719355	612.8440767222336	0.0	798.883921097811	672.3006730224444	0.0
150	6.010752688172043	975.9098491750358	507.0547215968895	0.0	966.6846362802448	519.4310705627599	0.0	915.8475190208392	582.2199581452531	0.0	992.4506957778145	654.2327351112057	0.0	968.0119222864453	684.0265118694631	0.0	972.8107049823235	682.3821590068562	0.0	1012.8123870996058	664.1367752317414	0.0	983.9437943511559	507.2139499707862	0.0	1072.005957692588	589.3525761307689	0.0	1174.0536101608527	636.2846133801181	0.0	1170.4292233759193	694.0984751684591	0.0	1181.5384995301356	688.8569487414753	0.0	1190.9236088061677	634.5225291769739	0.0	855.1105385210324	547.8081434828671	0.0	801.3184633123819	604.3871707803441	0.0	841.059709295703	592.2539987995112	0.0	861.9948746672142	532.1393213134519	0.0	852.9176858419949	602.1736203167796	0.0	812.9932845507427	659.7308867233614	0.0	850.8351963437738	543.0571753435781	0.0	828.7105209030397	613.2356327334765	0.0	799.6411310435033	672.079093317547	0.0
151	6.050824372759856	975.2324264528237	510.5529884434869	0.0	965.7623591085278	521.8811911408346	0.0	915.0702607113282	584.5435442473694	0.0	992.7125870561833	654.3672937853237	0.0	969.3255575511781	683.6401423964437	0.0	972.8625863199402	682.3768257823235	0.0	1012.9548463471817	664.749306753141	0.0	983.1808066075143	509.8255406632908	0.0	1071.4103566194522	592.0559794873468	0.0	1173.3333420873596	638.1923784268317	0.0	1171.0237392159866	695.0321323690955	0.0	1181.2437249744985	689.1163367591893	0.0	1191.2082089096332	637.4077658621743	0.0	852.7747595907545	547.8188609891861	0.0	801.1138875629226	604.966663603014	0.0	839.5202916088343	591.8676015382146	0.0	860.062945735423	531.4653471522761	0.0	852.4249953982379	602.0903385046197	0.0	812.6965744279488	661.1407786612499	0.0	849.9203404658833	542.8246857497438	0.0	827.5113431310344	612.8390075970866	0.0	799.0030145624753	671.3271957309779	0.0
